<?xml version="1.0" standalone="no"?><!DOCTYPE svg PUBLIC "-//W3C//DTD SVG 1.1//EN" "http://www.w3.org/Graphics/SVG/1.1/DTD/svg11.dtd"><svg t="1569459012399" class="icon" viewBox="0 0 1024 1024" version="1.1" xmlns="http://www.w3.org/2000/svg" p-id="3416" xmlns:xlink="http://www.w3.org/1999/xlink" width="200" height="200"><defs><style type="text/css"></style></defs><path d="M698.181818 512m-23.272727 0a23.272727 23.272727 0 1 0 46.545454 0 23.272727 23.272727 0 1 0-46.545454 0Z" fill="#22a2c3" p-id="3417"></path><path d="M325.818182 512m-23.272727 0a23.272727 23.272727 0 1 0 46.545454 0 23.272727 23.272727 0 1 0-46.545454 0Z" fill="#22a2c3" p-id="3418"></path><path d="M232.727273 674.909091m-23.272728 0a23.272727 23.272727 0 1 0 46.545455 0 23.272727 23.272727 0 1 0-46.545455 0Z" fill="#22a2c3" p-id="3419"></path><path d="M791.272727 349.090909m-23.272727 0a23.272727 23.272727 0 1 0 46.545455 0 23.272727 23.272727 0 1 0-46.545455 0Z" fill="#22a2c3" p-id="3420"></path><path d="M232.727273 232.727273m-23.272728 0a23.272727 23.272727 0 1 0 46.545455 0 23.272727 23.272727 0 1 0-46.545455 0Z" fill="#22a2c3" p-id="3421"></path><path d="M162.909091 279.272727m-23.272727 0a23.272727 23.272727 0 1 0 46.545454 0 23.272727 23.272727 0 1 0-46.545454 0Z" fill="#22a2c3" p-id="3422"></path><path d="M302.545455 186.181818m-23.272728 0a23.272727 23.272727 0 1 0 46.545455 0 23.272727 23.272727 0 1 0-46.545455 0Z" fill="#22a2c3" p-id="3423"></path><path d="M395.636364 186.181818m-23.272728 0a23.272727 23.272727 0 1 0 46.545455 0 23.272727 23.272727 0 1 0-46.545455 0Z" fill="#22a2c3" p-id="3424"></path><path d="M488.727273 186.181818m-23.272728 0a23.272727 23.272727 0 1 0 46.545455 0 23.272727 23.272727 0 1 0-46.545455 0Z" fill="#22a2c3" p-id="3425"></path><path d="M791.272727 791.272727m-23.272727 0a23.272727 23.272727 0 1 0 46.545455 0 23.272727 23.272727 0 1 0-46.545455 0Z" fill="#22a2c3" p-id="3426"></path><path d="M861.090909 744.727273m-23.272727 0a23.272727 23.272727 0 1 0 46.545454 0 23.272727 23.272727 0 1 0-46.545454 0Z" fill="#22a2c3" p-id="3427"></path><path d="M721.454545 837.818182m-23.272727 0a23.272727 23.272727 0 1 0 46.545455 0 23.272727 23.272727 0 1 0-46.545455 0Z" fill="#22a2c3" p-id="3428"></path><path d="M628.363636 837.818182m-23.272727 0a23.272727 23.272727 0 1 0 46.545455 0 23.272727 23.272727 0 1 0-46.545455 0Z" fill="#22a2c3" p-id="3429"></path><path d="M535.272727 837.818182m-23.272727 0a23.272727 23.272727 0 1 0 46.545455 0 23.272727 23.272727 0 1 0-46.545455 0Z" fill="#22a2c3" p-id="3430"></path><path d="M139.636364 651.636364l-116.363637-69.818182v-139.636364l116.363637 69.818182z" fill="#22a2c3" p-id="3431"></path><path d="M698.181818 186.181818l-116.363636-69.818182 116.363636-69.818181 116.363637 69.818181z" fill="#22a2c3" p-id="3432"></path><path d="M698.181818 325.818182l-116.363636-69.818182V116.363636l116.363636 69.818182z" fill="#22a2c3" p-id="3433"></path><path d="M698.181818 325.818182l116.363637-69.818182V116.363636l-116.363637 69.818182z" fill="#22a2c3" p-id="3434"></path><path d="M826.181818 95.418182l-116.363636-69.818182c-6.981818-4.654545-16.290909-4.654545-23.272727 0l-116.363637 69.818182c-6.981818 4.654545-11.636364 11.636364-11.636363 20.945454v139.636364c0 9.309091 4.654545 16.290909 11.636363 20.945455l116.363637 69.818181c2.327273 2.327273 6.981818 2.327273 11.636363 2.327273s9.309091 0 11.636364-2.327273l116.363636-69.818181c6.981818-4.654545 11.636364-11.636364 11.636364-20.945455V116.363636c0-9.309091-4.654545-16.290909-11.636364-20.945454zM698.181818 74.472727L770.327273 116.363636 698.181818 158.254545 626.036364 116.363636 698.181818 74.472727z m-93.090909 83.781818l69.818182 41.89091v86.10909l-69.818182-41.890909V158.254545z m116.363636 125.672728V200.145455l69.818182-41.89091v86.109091l-69.818182 39.563637z" fill="#22a2c3" p-id="3435"></path><path d="M884.363636 512l-116.363636-69.818182 116.363636-69.818182 116.363637 69.818182z" fill="#22a2c3" p-id="3436"></path><path d="M884.363636 651.636364l-116.363636-69.818182v-139.636364l116.363636 69.818182z" fill="#22a2c3" p-id="3437"></path><path d="M884.363636 651.636364l116.363637-69.818182v-139.636364l-116.363637 69.818182z" fill="#22a2c3" p-id="3438"></path><path d="M1012.363636 421.236364l-116.363636-69.818182c-6.981818-4.654545-16.290909-4.654545-23.272727 0l-116.363637 69.818182c-6.981818 4.654545-11.636364 11.636364-11.636363 20.945454v139.636364c0 9.309091 4.654545 16.290909 11.636363 20.945454l116.363637 69.818182c2.327273 2.327273 6.981818 2.327273 11.636363 2.327273s9.309091 0 11.636364-2.327273l116.363636-69.818182c6.981818-4.654545 11.636364-11.636364 11.636364-20.945454v-139.636364c0-9.309091-4.654545-16.290909-11.636364-20.945454z m-128-20.945455l72.145455 41.890909-72.145455 41.890909-72.145454-41.890909 72.145454-41.890909z m-93.090909 83.781818l69.818182 41.890909v86.109091l-69.818182-41.890909v-86.109091z m116.363637 125.672728v-86.109091l69.818181-41.890909v86.10909l-69.818181 41.89091z" fill="#22a2c3" p-id="3439"></path><path d="M325.818182 837.818182l-116.363637-69.818182 116.363637-69.818182 116.363636 69.818182z" fill="#22a2c3" p-id="3440"></path><path d="M325.818182 977.454545l-116.363637-69.818181v-139.636364l116.363637 69.818182z" fill="#22a2c3" p-id="3441"></path><path d="M325.818182 977.454545l116.363636-69.818181v-139.636364l-116.363636 69.818182z" fill="#22a2c3" p-id="3442"></path><path d="M453.818182 747.054545l-116.363637-69.818181c-6.981818-4.654545-16.290909-4.654545-23.272727 0l-116.363636 69.818181c-6.981818 4.654545-11.636364 11.636364-11.636364 20.945455v139.636364c0 9.309091 4.654545 16.290909 11.636364 20.945454l116.363636 69.818182c2.327273 2.327273 6.981818 2.327273 11.636364 2.327273s9.309091 0 11.636363-2.327273l116.363637-69.818182c6.981818-4.654545 11.636364-11.636364 11.636363-20.945454v-139.636364c0-9.309091-4.654545-16.290909-11.636363-20.945455z m-128-20.945454l72.145454 41.890909-72.145454 41.890909-72.145455-41.890909 72.145455-41.890909z m-93.090909 83.781818l69.818182 41.890909v86.109091l-69.818182-41.890909v-86.109091z m116.363636 125.672727v-86.109091l69.818182-41.890909v86.109091l-69.818182 41.890909z" fill="#22a2c3" p-id="3443"></path><path d="M512 512l-116.363636-69.818182 116.363636-69.818182 116.363636 69.818182z" fill="#22a2c3" p-id="3444"></path><path d="M512 651.636364l-116.363636-69.818182v-139.636364l116.363636 69.818182z" fill="#22a2c3" p-id="3445"></path><path d="M512 651.636364l116.363636-69.818182v-139.636364l-116.363636 69.818182z" fill="#22a2c3" p-id="3446"></path><path d="M640 421.236364l-116.363636-69.818182c-6.981818-4.654545-16.290909-4.654545-23.272728 0l-116.363636 69.818182c-6.981818 4.654545-11.636364 11.636364-11.636364 20.945454v139.636364c0 9.309091 4.654545 16.290909 11.636364 20.945454l116.363636 69.818182c2.327273 2.327273 6.981818 2.327273 11.636364 2.327273s9.309091 0 11.636364-2.327273l116.363636-69.818182c6.981818-4.654545 11.636364-11.636364 11.636364-20.945454v-139.636364c0-9.309091-4.654545-16.290909-11.636364-20.945454z m-128-20.945455l72.145455 41.890909-72.145455 41.890909-72.145455-41.890909 72.145455-41.890909z m-93.090909 83.781818l69.818182 41.890909v86.109091l-69.818182-41.890909v-86.109091z m116.363636 125.672728v-86.109091l69.818182-41.890909v86.10909l-69.818182 41.89091z" fill="#22a2c3" p-id="3447"></path><path d="M139.636364 512l-116.363637-69.818182 116.363637-69.818182 116.363636 69.818182z" fill="#22a2c3" p-id="3448"></path><path d="M139.636364 651.636364l-116.363637-69.818182v-139.636364l116.363637 69.818182z" fill="#22a2c3" p-id="3449"></path><path d="M139.636364 651.636364l116.363636-69.818182v-139.636364l-116.363636 69.818182z" fill="#22a2c3" p-id="3450"></path><path d="M267.636364 421.236364l-116.363637-69.818182c-6.981818-4.654545-16.290909-4.654545-23.272727 0l-116.363636 69.818182c-6.981818 4.654545-11.636364 11.636364-11.636364 20.945454v139.636364c0 9.309091 4.654545 16.290909 11.636364 20.945454l116.363636 69.818182c2.327273 2.327273 6.981818 2.327273 11.636364 2.327273s9.309091 0 11.636363-2.327273l116.363637-69.818182c6.981818-4.654545 11.636364-11.636364 11.636363-20.945454v-139.636364c0-9.309091-4.654545-16.290909-11.636363-20.945454zM139.636364 400.290909L211.781818 442.181818 139.636364 484.072727 67.490909 442.181818 139.636364 400.290909z m-93.090909 83.781818l69.818181 41.890909v86.109091l-69.818181-41.890909v-86.109091z m116.363636 125.672728v-86.109091l69.818182-41.890909v86.10909l-69.818182 41.89091z" fill="#22a2c3" p-id="3451"></path></svg>