<?xml version="1.0" standalone="no"?><!DOCTYPE svg PUBLIC "-//W3C//DTD SVG 1.1//EN" "http://www.w3.org/Graphics/SVG/1.1/DTD/svg11.dtd"><svg t="1565341071668" class="icon" viewBox="0 0 1024 1024" version="1.1" xmlns="http://www.w3.org/2000/svg" p-id="7819" xmlns:xlink="http://www.w3.org/1999/xlink" width="200" height="200"><defs><style type="text/css"></style></defs><path d="M862.2 226.2c-7.3-16.1-26.2-23.3-42.3-16-16.1 7.3-23.3 26.2-16 42.3 18.7 41.4 28.2 85.6 28.2 131.5 0 39.3-17.3 94-51.5 162.5-28.5 57.1-68.4 123-118.5 195.8-58.6 85.1-117.9 160-150 199.5-32-39.3-91.1-114-149.6-199-50.2-72.9-90.2-138.9-118.7-196C209.4 478.1 192 423.3 192 384c0-176.4 143.6-320 320-320 61 0 120.3 17.2 171.5 49.8 14.9 9.5 34.7 5.1 44.2-9.8 9.5-14.9 5.1-34.7-9.8-44.2C656.4 20.7 585.2 0 512 0c-51.8 0-102.1 10.2-149.5 30.2-45.7 19.3-86.8 47-122 82.3-35.3 35.3-62.9 76.3-82.3 122-20 47.4-30.2 97.7-30.2 149.5 0 50 19.1 112.6 58.4 191.3 29.9 59.8 71.3 128.4 123.3 203.8C397.6 906.6 486.7 1011.7 487.6 1012.7c6.1 7.1 15 11.3 24.4 11.3s18.3-4.1 24.4-11.3c0.9-1 90.1-106.1 178-233.7 51.9-75.4 93.4-143.9 123.3-203.8 39.3-78.7 58.4-141.3 58.4-191.3C896 329 884.6 275.9 862.2 226.2z" p-id="7820" fill="#000000"></path><path d="M512 224c-97 0-176 79-176 176s79 176 176 176 176-79 176-176S609 224 512 224zM512 512c-61.8 0-112-50.2-112-112s50.2-112 112-112 112 50.2 112 112S573.8 512 512 512z" p-id="7821" fill="#000000"></path></svg>